:SAMPLES-PER-SECOND 30
:FULLY-SPECIFIED
:DEGREES
266
root  35.11582923 36.52249434 -14.58960556 10.62253571 7.461596489 3.729369879
lowerback  -8.644860268 1.679149985 1.327460289
upperback  -3.932440042 1.803200006 -3.80704999
thorax  0.9356480241 0.6927070022 -4.528339863
lowerneck  -16.47590065 0.1893910021 1.890980005
upperneck  14.42710018 -1.347149968 5.227499962
head  7.174019814 -0.138163045 1.240910053
lclavicle  0 -4.497500157e-015 -2.743230041e-014
lhumerus  -43.59429932 26.66020012 69.03450012
lradius  -0.269462496 -6.507048965e-006 27.7241993
lwrist  4.824992743e-007 -3.790274832e-007 -30.28989983
lhand  -4.419710171e-031 -36.9701004 -10.3178997
lfingers  90 7.125020027 -90
lthumb  94.77266698 -25.15798234 101.1113659
rclavicle  0 -4.497500157e-015 -2.743230041e-014
rhumerus  -3.346570015 2.522849798 -59.56750107
rradius  -5.16745672e-007 2.214343908e-008 108.0699997
rwrist  1.129822067e-006 0.001802438172 177.875
rhand  -0 2.550580025 -5.169179916
rfingers  -90 -7.125020027 -90
rthumb  -84.34203449 -10.49110678 -61.44912971
rfemur  -12.40718365 11.72254658 13.9938221
rtibia  -1.455376863 1.54116261 21.30503464
rfoot  -1.117640853 -16.70875168 -41.99596405
rtoes  3.810449628 19.64826482 -101.2040675
lfemur  -10.44407845 -21.49952316 -19.00143623
ltibia  3.222383499 1.676981211 14.36026478
lfoot  0.665048182 -28.34671402 32.24251556
ltoes  -8.666422234 -18.09448966 -116.1398222
267
root  35.11764647 36.52259346 -14.59120352 10.57777786 7.338826656 3.736509323
lowerback  -8.655638695 1.601929903 1.371889472
upperback  -3.921869993 1.699609995 -3.733479977
thorax  0.9425309896 0.6428030133 -4.486310005
lowerneck  -16.43549919 0.2824989855 1.795819998
upperneck  14.44309998 -1.18809998 5.200620174
head  7.168829918 -0.0683048889 1.265140057
lclavicle  0 -4.497500157e-015 -2.743230041e-014
lhumerus  -43.7018013 26.72039986 69.08560181
lradius  -0.2664433718 -6.507048965e-006 27.83359909
lwrist  4.824992743e-007 -3.790274832e-007 -30.20019722
lhand  -4.421889538e-031 -37.00759888 -10.36359978
lfingers  90 7.125020027 -90
lthumb  94.79973984 -25.2014694 101.1555299
rclavicle  0 -4.497500157e-015 -2.743230041e-014
rhumerus  -4.799609661 2.40650034 -60.03760147
rradius  -5.16745672e-007 2.214343908e-008 108.2969971
rwrist  1.129822067e-006 0.001802438172 177.2870026
rhand  -1.767489847e-031 2.675940037 -5.194749832
rfingers  -90 -7.125020027 -90
rthumb  -84.32283054 -10.47408853 -61.32831348
rfemur  -12.38647366 11.76908588 13.97273827
rtibia  -1.457061768 1.521192908 21.31149673
rfoot  -1.095917225 -16.73651123 -41.91448212
rtoes  3.821741886 19.64615504 -101.2376527
lfemur  -10.36086655 -21.46148491 -19.05553055
ltibia  3.23560977 1.648200274 14.30801201
lfoot  0.6446860433 -28.27954483 32.28152847
ltoes  -8.653079154 -18.10070802 -116.0968682
268
root  35.11984818 36.52325427 -14.58864137 10.50108624 7.263196945 3.724727154
lowerback  -8.661978722 1.502880096 1.337539554
upperback  -3.88609004 1.572989941 -3.717740059
thorax  0.9705380201 0.5817019939 -4.462230206
lowerneck  -16.52939987 0.3958910108 2.014199972
upperneck  14.46000004 -1.054559946 5.015769958
head  7.185989857 -0.005779433995 1.18441987
lclavicle  0 -4.497500157e-015 -2.743230041e-014
lhumerus  -43.69380188 26.6284008 69.13539886
lradius  -0.2633982301 -6.507048965e-006 27.98659897
lwrist  4.824992743e-007 -3.790274832e-007 -29.94260025
lhand  -4.422675145e-031 -37.02109909 -10.36310005
lfingers  90 7.125020027 -90
lthumb  94.80587906 -25.20057739 101.1698657
rclavicle  0 -4.497500157e-015 -2.743230041e-014
rhumerus  -6.257650852 2.380831003 -60.72610092
rradius  -5.16745672e-007 2.214343908e-008 108.6439972
rwrist  1.129822067e-006 0.001802438172 177.6009979
rhand  -1.767628974e-031 2.770750046 -5.212379932
rfingers  -90 -7.125020027 -90
rthumb  -84.3074923 -10.46274531 -61.23687187
rfemur  -12.29476738 11.84957218 13.97334862
rtibia  -1.437019944 1.538522243 21.263937
rfoot  -1.063304305 -16.7072258 -41.90325928
rtoes  3.793811613 19.65136151 -101.1545895
lfemur  -10.23412323 -21.38875008 -19.10190201
ltibia  3.247533083 1.635088563 14.25235653
lfoot  0.6255326867 -28.25553131 32.29409409
ltoes  -8.64070059 -18.10646615 -116.0570319
269
root  35.12488238 36.52666347 -14.57665811 10.36431408 7.268480301 3.699856997
lowerback  -8.618900299 1.39910996 1.227260351
upperback  -3.918800116 1.439370036 -3.657919884
thorax  0.8971130252 0.514072001 -4.350560188
lowerneck  -16.51980019 0.4742619991 2.078200102
upperneck  14.45429993 -0.9352610707 4.88737011
head  7.179080009 0.04467281327 1.145190001
lclavicle  0 -4.497500157e-015 -2.743230041e-014
lhumerus  -43.73989868 26.52779961 69.24880219
lradius  -0.2603357434 -6.507048965e-006 28.10050201
lwrist  4.824992743e-007 -3.790274832e-007 -29.78620148
lhand  -4.419541843e-031 -36.96720123 -10.38029957
lfingers  90 7.125020027 -90
lthumb  94.78460285 -25.2192499 101.1139209
rclavicle  0 -4.497500157e-015 -2.743230041e-014
rhumerus  -7.814421177 2.535500526 -61.2507019
rradius  -5.16745672e-007 2.214343908e-008 109.0250015
rwrist  1.129822067e-006 0.001802438172 178.3939972
rhand  -1.767612612e-031 2.759769917 -5.35367012
rfingers  -90 -7.125020027 -90
rthumb  -84.37934459 -10.33840874 -61.26012046
rfemur  -12.08213997 11.90025139 13.99206352
rtibia  -1.386928678 1.591612101 21.14673805
rfoot  -1.012640238 -16.62683487 -41.93459702
rtoes  3.789500055 19.65216168 -101.141769
lfemur  -9.985748291 -21.23469925 -19.18446732
ltibia  3.288856268 1.675994992 14.13483429
lfoot  0.6024573445 -28.3585701 32.22091293
ltoes  -8.627379233 -18.1126513 -116.0141752
270
root  35.1249815 36.52757359 -14.57517128 10.2899065 7.184550285 3.67894125
lowerback  -8.619769096 1.351950049 1.221609592
upperback  -3.925290108 1.377079964 -3.603840113
thorax  0.8842430115 0.4835860133 -4.296689987
lowerneck  -16.51950073 0.5081250072 2.002830029
upperneck  14.5163002 -0.863607049 4.843709946
head  7.19754982 0.07325168699 1.151579857
lclavicle  0 -4.497500157e-015 -2.743230041e-014
lhumerus  -43.71009827 26.36470032 69.46199799
lradius  -0.2572470903 -6.507048965e-006 28.15059853
lwrist  4.824992743e-007 -3.790274832e-007 -29.24250221
lhand  -4.421278997e-031 -36.99710083 -10.40019989
lfingers  90 7.125020027 -90
lthumb  94.80267051 -25.23774187 101.1475836
rclavicle  0 -4.497500157e-015 -2.743230041e-014
rhumerus  -9.379490852 2.579720736 -61.6230011
rradius  -5.16745672e-007 2.214343908e-008 109.387001
rwrist  1.129822067e-006 0.001802438172 178.9089966
rhand  -1.767943699e-031 2.974050045 -5.416100025
rfingers  -90 -7.125020027 -90
rthumb  -84.35617278 -10.29343166 -61.05545454
rfemur  -11.99002743 11.92932129 13.99421501
rtibia  -1.354373693 1.579064369 21.09038925
rfoot  -0.9971067905 -16.68747711 -41.92154694
rtoes  3.805782822 19.64913484 -101.1901887
lfemur  -9.898200989 -21.19233131 -19.20060539
ltibia  3.27191925 1.650015354 14.12392712
lfoot  0.5733262897 -28.32113647 32.23823547
ltoes  -8.64716539 -18.10346021 -116.0778352
